<svg width="192" height="192" viewBox="0 0 192 192" fill="none" xmlns="http://www.w3.org/2000/svg">
<g id="Sunny">
<g id="Sun">
<circle id="sun" cx="96" cy="96" r="48" fill="#FFE168"/>
<rect id="ray1" x="92" y="23" width="8" height="17" rx="4" fill="#FFE168"/>
<rect id="ray2" x="145.021" y="41" width="8" height="17" rx="4" transform="rotate(45 145.021 41)" fill="#FFE168"/>
<rect id="ray6" x="53.0208" y="133" width="8" height="17" rx="4" transform="rotate(45 53.0208 133)" fill="#FFE168"/>
<rect id="ray8" x="41" y="46.6569" width="8" height="17" rx="4" transform="rotate(-45 41 46.6569)" fill="#FFE168"/>
<rect id="ray4" x="134" y="139.657" width="8" height="17" rx="4" transform="rotate(-45 134 139.657)" fill="#FFE168"/>
<rect id="ray7" x="23.5" y="100" width="8" height="17" rx="4" transform="rotate(-90 23.5 100)" fill="#FFE168"/>
<rect id="ray3" x="152" y="100" width="8" height="17" rx="4" transform="rotate(-90 152 100)" fill="#FFE168"/>
<rect id="ray5" x="92" y="152" width="8" height="17" rx="4" fill="#FFE168"/>
</g>
</g>
</svg>
